<?xml version="1.0" encoding="utf-8"?>
<!-- Generator: Adobe Illustrator 25.4.1, SVG Export Plug-In . SVG Version: 6.00 Build 0)  -->
<svg version="1.1" id="Layer_1" xmlns="http://www.w3.org/2000/svg" xmlns:xlink="http://www.w3.org/1999/xlink" x="0px" y="0px"
	 viewBox="0 0 1080 1080" style="enable-background:new 0 0 1080 1080;" xml:space="preserve">
<style type="text/css">
	.st0{fill:url(#SVGID_1_);}
	.st1{fill:url(#SVGID_00000036215568818701814970000007709821566775340697_);}
</style>
<g>
	<linearGradient id="SVGID_1_" gradientUnits="userSpaceOnUse" x1="146.4958" y1="489.9956" x2="798.8679" y2="489.9956">
		<stop  offset="0" style="stop-color:#E91D2C"/>
		<stop  offset="1" style="stop-color:#680D0D"/>
	</linearGradient>
	<path class="st0" d="M798.9,220.2l-6,22.4l-7.4-7.4L572.3,448.3v0.2L418.6,602.3L258.6,428v192.7c-3.7-0.1-7.3,0-11,0l-0.1,6.6h12
		l-5.8,12.6h-6.1l-0.4,20.6h0c1,12.8,9.3,24.2,28,33.5c-24.3,20-45.1,41.7-61,65.9l1.1-63.5c3.1-1,5.3-3,5.3-5.3
		c0.1-3.3-4.3-6-9.6-6.1c-5.3,0-9.8,2.6-9.8,5.9c0,2.3,2,4.3,5.1,5.3l-1.1,63.5c-15.1-24.3-35.2-46.3-58.7-66.6
		c19.1-9.1,27.8-20.3,29.2-33.1h0l0.4-20.1h-13.9l-4.7-12.6h18.8l0.1-5.8c-4.7,0-9.4,0.1-14.1,0.4V331c0-4.4-0.5-11.6-0.5-17.5
		c-3.9-9.7-3.9-7.3-15-11.1v-9.7h168.7v7.3l-19.9,7.8v6.3l178.4,193.4V309.2l-16-9.7l1.5-8.2h128l-2.4,8.7
		c-4.4,0-10.2,2.4-12.6,11.2V445l211.5-211.5l-7.3-7.3L798.9,220.2z"/>
	
		<linearGradient id="SVGID_00000002354155729926064550000006077113936585452479_" gradientUnits="userSpaceOnUse" x1="834.7289" y1="722.739" x2="398.7641" y2="471.0345">
		<stop  offset="0" style="stop-color:#E91D2C"/>
		<stop  offset="1" style="stop-color:#680D0D"/>
	</linearGradient>
	<path style="fill:url(#SVGID_00000002354155729926064550000006077113936585452479_);" d="M918.3,759.8V820c0,4.4,0.5,11.6,0.5,17.5
		c3.9,9.7,3.9,7.3,15,11.1v9.7H765.1v-7.3l19.9-7.8V837L606.6,643.6v198.3l16,9.7l-1.5,8.2h-128l2.4-8.7c4.4,0,10.2-2.4,12.6-11.2
		V547L305.4,749.8l7.5,7.5l-22.4,6l6-22.4l7.6,7.6l204.2-204.1v-0.7l71.7-71.7h46.6v9.7l-16,4.4v6.8l211.4,230.3V530.4
		c3.7,0.1,7.3,0,11,0l0.1-6.6h-12l5.8-12.6h6.2l0.4-20.6h0c-1-12.8-9.3-24.2-28-33.5c24.3-20,45.1-41.7,61-65.9l-1.1,63.5
		c-3.1,1-5.3,3-5.3,5.3c-0.1,3.3,4.3,6,9.6,6.1c5.3,0,9.8-2.6,9.8-5.9c0-2.3-2.1-4.3-5.1-5.3l1.1-63.5
		c15.1,24.3,35.2,46.3,58.7,66.6c-19.1,9.1-27.8,20.3-29.2,33.1h0l-0.4,20.1h13.9l4.7,12.6h-18.8l-0.1,5.8c4.7,0,9.4-0.1,14.1-0.4
		V759.8"/>
</g>
</svg>
